<mxfile host="app.diagrams.net" agent="Mozilla/5.0 (Windows NT 10.0; Win64; x64) AppleWebKit/537.36 (KHTML, like Gecko) Chrome/138.0.0.0 Safari/537.36 Edg/138.0.0.0" version="27.1.6" pages="2">
  <diagram name="Page-1" id="RACmovAaFmFr60nn3bq7">
    <mxGraphModel dx="1723" dy="1007" grid="1" gridSize="10" guides="1" tooltips="1" connect="1" arrows="1" fold="1" page="1" pageScale="1" pageWidth="850" pageHeight="1100" math="0" shadow="0">
      <root>
        <mxCell id="0" />
        <mxCell id="1" parent="0" />
        <mxCell id="j9rlx7WASXWyvFPkrjB--14" value="" style="edgeStyle=orthogonalEdgeStyle;rounded=0;orthogonalLoop=1;jettySize=auto;html=1;" edge="1" parent="1" source="j9rlx7WASXWyvFPkrjB--1" target="j9rlx7WASXWyvFPkrjB--2">
          <mxGeometry relative="1" as="geometry" />
        </mxCell>
        <mxCell id="j9rlx7WASXWyvFPkrjB--1" value="START&amp;nbsp;" style="ellipse;whiteSpace=wrap;html=1;" vertex="1" parent="1">
          <mxGeometry x="365" width="120" height="80" as="geometry" />
        </mxCell>
        <mxCell id="j9rlx7WASXWyvFPkrjB--15" value="" style="edgeStyle=orthogonalEdgeStyle;rounded=0;orthogonalLoop=1;jettySize=auto;html=1;" edge="1" parent="1" source="j9rlx7WASXWyvFPkrjB--2" target="j9rlx7WASXWyvFPkrjB--5">
          <mxGeometry relative="1" as="geometry" />
        </mxCell>
        <mxCell id="j9rlx7WASXWyvFPkrjB--2" value="target_num = 1 to 100.random" style="rounded=0;whiteSpace=wrap;html=1;" vertex="1" parent="1">
          <mxGeometry x="370" y="110" width="120" height="60" as="geometry" />
        </mxCell>
        <mxCell id="j9rlx7WASXWyvFPkrjB--29" style="edgeStyle=orthogonalEdgeStyle;rounded=0;orthogonalLoop=1;jettySize=auto;html=1;" edge="1" parent="1" source="j9rlx7WASXWyvFPkrjB--4" target="j9rlx7WASXWyvFPkrjB--7">
          <mxGeometry relative="1" as="geometry" />
        </mxCell>
        <mxCell id="j9rlx7WASXWyvFPkrjB--45" value="TRUE" style="edgeLabel;html=1;align=center;verticalAlign=middle;resizable=0;points=[];" vertex="1" connectable="0" parent="j9rlx7WASXWyvFPkrjB--29">
          <mxGeometry x="-0.4551" y="2" relative="1" as="geometry">
            <mxPoint as="offset" />
          </mxGeometry>
        </mxCell>
        <mxCell id="j9rlx7WASXWyvFPkrjB--30" style="edgeStyle=orthogonalEdgeStyle;rounded=0;orthogonalLoop=1;jettySize=auto;html=1;exitX=1;exitY=0.5;exitDx=0;exitDy=0;" edge="1" parent="1" source="j9rlx7WASXWyvFPkrjB--4">
          <mxGeometry relative="1" as="geometry">
            <mxPoint x="600" y="635.0000000000002" as="targetPoint" />
          </mxGeometry>
        </mxCell>
        <mxCell id="j9rlx7WASXWyvFPkrjB--46" value="FALSE" style="edgeLabel;html=1;align=center;verticalAlign=middle;resizable=0;points=[];" vertex="1" connectable="0" parent="j9rlx7WASXWyvFPkrjB--30">
          <mxGeometry x="-0.6782" y="1" relative="1" as="geometry">
            <mxPoint as="offset" />
          </mxGeometry>
        </mxCell>
        <mxCell id="j9rlx7WASXWyvFPkrjB--4" value="if g_num == target_num" style="rhombus;whiteSpace=wrap;html=1;direction=east;" vertex="1" parent="1">
          <mxGeometry x="365" y="330" width="120" height="120" as="geometry" />
        </mxCell>
        <mxCell id="j9rlx7WASXWyvFPkrjB--35" value="" style="edgeStyle=orthogonalEdgeStyle;rounded=0;orthogonalLoop=1;jettySize=auto;html=1;" edge="1" parent="1" source="j9rlx7WASXWyvFPkrjB--5" target="j9rlx7WASXWyvFPkrjB--4">
          <mxGeometry relative="1" as="geometry" />
        </mxCell>
        <mxCell id="j9rlx7WASXWyvFPkrjB--5" value="input g_num&amp;nbsp;" style="shape=parallelogram;perimeter=parallelogramPerimeter;whiteSpace=wrap;html=1;fixedSize=1;" vertex="1" parent="1">
          <mxGeometry x="365" y="220" width="120" height="60" as="geometry" />
        </mxCell>
        <mxCell id="j9rlx7WASXWyvFPkrjB--44" style="edgeStyle=orthogonalEdgeStyle;rounded=0;orthogonalLoop=1;jettySize=auto;html=1;entryX=0.5;entryY=0;entryDx=0;entryDy=0;" edge="1" parent="1" source="j9rlx7WASXWyvFPkrjB--7" target="j9rlx7WASXWyvFPkrjB--19">
          <mxGeometry relative="1" as="geometry" />
        </mxCell>
        <mxCell id="j9rlx7WASXWyvFPkrjB--7" value="output&lt;div&gt;Correct you guessed it!&amp;nbsp;&lt;/div&gt;" style="shape=parallelogram;perimeter=parallelogramPerimeter;whiteSpace=wrap;html=1;fixedSize=1;" vertex="1" parent="1">
          <mxGeometry x="70" y="640" width="170" height="60" as="geometry" />
        </mxCell>
        <mxCell id="j9rlx7WASXWyvFPkrjB--40" style="edgeStyle=orthogonalEdgeStyle;rounded=0;orthogonalLoop=1;jettySize=auto;html=1;" edge="1" parent="1" source="j9rlx7WASXWyvFPkrjB--10" target="j9rlx7WASXWyvFPkrjB--12">
          <mxGeometry relative="1" as="geometry" />
        </mxCell>
        <mxCell id="j9rlx7WASXWyvFPkrjB--41" style="edgeStyle=orthogonalEdgeStyle;rounded=0;orthogonalLoop=1;jettySize=auto;html=1;entryX=1;entryY=0.5;entryDx=0;entryDy=0;" edge="1" parent="1" source="j9rlx7WASXWyvFPkrjB--10" target="j9rlx7WASXWyvFPkrjB--33">
          <mxGeometry relative="1" as="geometry">
            <Array as="points">
              <mxPoint x="1160" y="700" />
              <mxPoint x="1160" y="90" />
            </Array>
          </mxGeometry>
        </mxCell>
        <mxCell id="j9rlx7WASXWyvFPkrjB--10" value="target_num &amp;gt; g_num&amp;nbsp;" style="rhombus;whiteSpace=wrap;html=1;" vertex="1" parent="1">
          <mxGeometry x="530" y="640" width="140" height="120" as="geometry" />
        </mxCell>
        <mxCell id="j9rlx7WASXWyvFPkrjB--43" style="edgeStyle=orthogonalEdgeStyle;rounded=0;orthogonalLoop=1;jettySize=auto;html=1;entryX=1;entryY=0.75;entryDx=0;entryDy=0;" edge="1" parent="1" source="j9rlx7WASXWyvFPkrjB--12" target="j9rlx7WASXWyvFPkrjB--5">
          <mxGeometry relative="1" as="geometry" />
        </mxCell>
        <mxCell id="j9rlx7WASXWyvFPkrjB--12" value="output&amp;nbsp;&lt;div&gt;Sorry too low Try again&amp;nbsp;&lt;/div&gt;" style="shape=parallelogram;perimeter=parallelogramPerimeter;whiteSpace=wrap;html=1;fixedSize=1;" vertex="1" parent="1">
          <mxGeometry x="840" y="290" width="150" height="70" as="geometry" />
        </mxCell>
        <mxCell id="j9rlx7WASXWyvFPkrjB--19" value="END&amp;nbsp;" style="ellipse;whiteSpace=wrap;html=1;" vertex="1" parent="1">
          <mxGeometry x="95" y="820" width="120" height="80" as="geometry" />
        </mxCell>
        <mxCell id="j9rlx7WASXWyvFPkrjB--42" style="edgeStyle=orthogonalEdgeStyle;rounded=0;orthogonalLoop=1;jettySize=auto;html=1;entryX=0.75;entryY=0;entryDx=0;entryDy=0;" edge="1" parent="1" source="j9rlx7WASXWyvFPkrjB--33" target="j9rlx7WASXWyvFPkrjB--5">
          <mxGeometry relative="1" as="geometry">
            <Array as="points">
              <mxPoint x="915" y="180" />
              <mxPoint x="455" y="180" />
            </Array>
          </mxGeometry>
        </mxCell>
        <mxCell id="j9rlx7WASXWyvFPkrjB--33" value="output&amp;nbsp;&lt;div&gt;Sorry too High Try again&lt;/div&gt;" style="shape=parallelogram;perimeter=parallelogramPerimeter;whiteSpace=wrap;html=1;fixedSize=1;" vertex="1" parent="1">
          <mxGeometry x="855" y="60" width="120" height="60" as="geometry" />
        </mxCell>
      </root>
    </mxGraphModel>
  </diagram>
  <diagram id="NpR-BBIeOrWew8AM8q4X" name="Page-2">
    <mxGraphModel dx="1216" dy="711" grid="1" gridSize="10" guides="1" tooltips="1" connect="1" arrows="1" fold="1" page="1" pageScale="1" pageWidth="850" pageHeight="1100" math="0" shadow="0">
      <root>
        <mxCell id="0" />
        <mxCell id="1" parent="0" />
        <mxCell id="6LuFqccwn-yeveJfKG_n-1" value="END" style="ellipse;whiteSpace=wrap;html=1;" vertex="1" parent="1">
          <mxGeometry x="620" y="580" width="120" height="80" as="geometry" />
        </mxCell>
        <mxCell id="6LuFqccwn-yeveJfKG_n-12" value="" style="edgeStyle=orthogonalEdgeStyle;rounded=0;orthogonalLoop=1;jettySize=auto;html=1;" edge="1" parent="1" source="6LuFqccwn-yeveJfKG_n-2" target="6LuFqccwn-yeveJfKG_n-4">
          <mxGeometry relative="1" as="geometry" />
        </mxCell>
        <mxCell id="6LuFqccwn-yeveJfKG_n-2" value="START" style="ellipse;whiteSpace=wrap;html=1;" vertex="1" parent="1">
          <mxGeometry x="350" y="30" width="120" height="80" as="geometry" />
        </mxCell>
        <mxCell id="6LuFqccwn-yeveJfKG_n-13" value="" style="edgeStyle=orthogonalEdgeStyle;rounded=0;orthogonalLoop=1;jettySize=auto;html=1;" edge="1" parent="1" source="6LuFqccwn-yeveJfKG_n-4" target="6LuFqccwn-yeveJfKG_n-5">
          <mxGeometry relative="1" as="geometry" />
        </mxCell>
        <mxCell id="6LuFqccwn-yeveJfKG_n-4" value="input&amp;nbsp;&lt;div&gt;WORD&amp;nbsp;&lt;/div&gt;" style="shape=parallelogram;perimeter=parallelogramPerimeter;whiteSpace=wrap;html=1;fixedSize=1;" vertex="1" parent="1">
          <mxGeometry x="350" y="140" width="120" height="60" as="geometry" />
        </mxCell>
        <mxCell id="6LuFqccwn-yeveJfKG_n-14" value="" style="edgeStyle=orthogonalEdgeStyle;rounded=0;orthogonalLoop=1;jettySize=auto;html=1;" edge="1" parent="1" source="6LuFqccwn-yeveJfKG_n-5" target="6LuFqccwn-yeveJfKG_n-6">
          <mxGeometry relative="1" as="geometry" />
        </mxCell>
        <mxCell id="6LuFqccwn-yeveJfKG_n-5" value="input&lt;div&gt;PAGE&lt;/div&gt;" style="shape=parallelogram;perimeter=parallelogramPerimeter;whiteSpace=wrap;html=1;fixedSize=1;" vertex="1" parent="1">
          <mxGeometry x="340" y="230" width="120" height="60" as="geometry" />
        </mxCell>
        <mxCell id="6LuFqccwn-yeveJfKG_n-15" style="edgeStyle=orthogonalEdgeStyle;rounded=0;orthogonalLoop=1;jettySize=auto;html=1;" edge="1" parent="1" source="6LuFqccwn-yeveJfKG_n-6" target="6LuFqccwn-yeveJfKG_n-8">
          <mxGeometry relative="1" as="geometry" />
        </mxCell>
        <mxCell id="6LuFqccwn-yeveJfKG_n-16" style="edgeStyle=orthogonalEdgeStyle;rounded=0;orthogonalLoop=1;jettySize=auto;html=1;entryX=0.5;entryY=0;entryDx=0;entryDy=0;" edge="1" parent="1" source="6LuFqccwn-yeveJfKG_n-6" target="6LuFqccwn-yeveJfKG_n-7">
          <mxGeometry relative="1" as="geometry" />
        </mxCell>
        <mxCell id="6LuFqccwn-yeveJfKG_n-6" value="if WORD == PAGE&amp;nbsp;" style="rhombus;whiteSpace=wrap;html=1;" vertex="1" parent="1">
          <mxGeometry x="310" y="320" width="170" height="110" as="geometry" />
        </mxCell>
        <mxCell id="6LuFqccwn-yeveJfKG_n-24" style="edgeStyle=orthogonalEdgeStyle;rounded=0;orthogonalLoop=1;jettySize=auto;html=1;" edge="1" parent="1" source="6LuFqccwn-yeveJfKG_n-7" target="6LuFqccwn-yeveJfKG_n-1">
          <mxGeometry relative="1" as="geometry" />
        </mxCell>
        <mxCell id="6LuFqccwn-yeveJfKG_n-7" value="output&amp;nbsp;&lt;div&gt;GREAT WE FOUND THE WORD!&lt;/div&gt;" style="shape=parallelogram;perimeter=parallelogramPerimeter;whiteSpace=wrap;html=1;fixedSize=1;" vertex="1" parent="1">
          <mxGeometry x="490" y="410" width="230" height="60" as="geometry" />
        </mxCell>
        <mxCell id="6LuFqccwn-yeveJfKG_n-17" style="edgeStyle=orthogonalEdgeStyle;rounded=0;orthogonalLoop=1;jettySize=auto;html=1;" edge="1" parent="1" source="6LuFqccwn-yeveJfKG_n-8">
          <mxGeometry relative="1" as="geometry">
            <mxPoint x="120" y="590" as="targetPoint" />
          </mxGeometry>
        </mxCell>
        <mxCell id="6LuFqccwn-yeveJfKG_n-18" style="edgeStyle=orthogonalEdgeStyle;rounded=0;orthogonalLoop=1;jettySize=auto;html=1;" edge="1" parent="1" source="6LuFqccwn-yeveJfKG_n-8">
          <mxGeometry relative="1" as="geometry">
            <mxPoint x="470" y="590" as="targetPoint" />
          </mxGeometry>
        </mxCell>
        <mxCell id="6LuFqccwn-yeveJfKG_n-8" value="IF WORD &amp;gt; PAGE&amp;nbsp;" style="rhombus;whiteSpace=wrap;html=1;" vertex="1" parent="1">
          <mxGeometry x="230" y="450" width="140" height="80" as="geometry" />
        </mxCell>
        <mxCell id="6LuFqccwn-yeveJfKG_n-22" style="edgeStyle=orthogonalEdgeStyle;rounded=0;orthogonalLoop=1;jettySize=auto;html=1;entryX=0.5;entryY=0;entryDx=0;entryDy=0;" edge="1" parent="1" source="6LuFqccwn-yeveJfKG_n-9" target="6LuFqccwn-yeveJfKG_n-6">
          <mxGeometry relative="1" as="geometry">
            <Array as="points">
              <mxPoint x="130" y="730" />
              <mxPoint x="800" y="730" />
              <mxPoint x="800" y="300" />
              <mxPoint x="395" y="300" />
            </Array>
          </mxGeometry>
        </mxCell>
        <mxCell id="6LuFqccwn-yeveJfKG_n-9" value="output&lt;div&gt;flip forward some pages&amp;nbsp;&lt;/div&gt;" style="shape=parallelogram;perimeter=parallelogramPerimeter;whiteSpace=wrap;html=1;fixedSize=1;" vertex="1" parent="1">
          <mxGeometry x="50" y="600" width="160" height="60" as="geometry" />
        </mxCell>
        <mxCell id="6LuFqccwn-yeveJfKG_n-23" style="edgeStyle=orthogonalEdgeStyle;rounded=0;orthogonalLoop=1;jettySize=auto;html=1;" edge="1" parent="1" source="6LuFqccwn-yeveJfKG_n-11">
          <mxGeometry relative="1" as="geometry">
            <mxPoint x="445" y="730" as="targetPoint" />
          </mxGeometry>
        </mxCell>
        <mxCell id="6LuFqccwn-yeveJfKG_n-11" value="output&lt;div&gt;you past it flip back&amp;nbsp;&lt;/div&gt;" style="shape=parallelogram;perimeter=parallelogramPerimeter;whiteSpace=wrap;html=1;fixedSize=1;" vertex="1" parent="1">
          <mxGeometry x="350" y="600" width="190" height="60" as="geometry" />
        </mxCell>
      </root>
    </mxGraphModel>
  </diagram>
</mxfile>
